<?xml version="1.0" standalone="no"?>
<!DOCTYPE svg PUBLIC "-//W3C//DTD SVG 20010904//EN"
 "http://www.w3.org/TR/2001/REC-SVG-20010904/DTD/svg10.dtd">
<svg version="1.0" xmlns="http://www.w3.org/2000/svg"
 width="360.000000pt" height="504.000000pt" viewBox="0 0 360.000000 504.000000"
 preserveAspectRatio="xMidYMid meet">

<g transform="translate(0.000000,504.000000) scale(0.100000,-0.100000)"
fill="#000000" stroke="none">
<path d="M2175 4860 c-19 -36 -19 -46 -1 -31 12 10 29 61 20 61 -2 0 -10 -13
-19 -30z"/>
<path d="M2007 4833 c-6 -31 7 -53 22 -37 5 5 13 21 16 37 6 23 4 27 -13 27
-14 0 -21 -9 -25 -27z"/>
<path d="M1900 4819 c-13 -9 -12 -10 3 -5 10 3 16 2 13 -2 -7 -11 21 -45 33
-38 5 4 12 2 15 -2 11 -19 -34 -6 -48 13 -12 16 -15 17 -16 4 0 -21 36 -53 49
-44 6 3 11 -1 11 -11 0 -13 -6 -15 -32 -10 l-33 6 33 -20 c42 -26 78 -26 85 0
3 11 10 20 17 20 6 0 9 -4 6 -9 -4 -5 5 -8 19 -6 14 1 29 -4 34 -12 11 -20 56
-13 56 9 0 9 4 20 8 24 4 4 7 -2 7 -14 0 -21 1 -21 31 -4 36 20 39 37 6 37
-15 0 -23 7 -25 23 -2 12 -8 22 -13 22 -19 0 -68 -30 -82 -50 -14 -20 -14 -20
-33 2 -22 25 -103 78 -118 78 -6 0 -18 -5 -26 -11z m105 -80 c10 -14 1 -21
-19 -13 -9 3 -13 10 -10 15 7 12 21 11 29 -2z"/>
<path d="M1850 4739 c0 -5 5 -7 10 -4 6 3 10 8 10 11 0 2 -4 4 -10 4 -5 0 -10
-5 -10 -11z"/>
<path d="M2035 4674 c23 -17 45 -18 45 -1 0 7 -14 12 -32 13 -29 1 -30 0 -13
-12z"/>
<path d="M2063 4600 c0 -25 2 -35 4 -22 2 12 2 32 0 45 -2 12 -4 2 -4 -23z"/>
<path d="M2050 4443 c-12 -35 -25 -63 -27 -63 -2 0 -16 14 -30 30 -28 34 -53
38 -76 12 -23 -25 -21 -48 3 -69 11 -10 20 -21 20 -24 0 -12 -53 -26 -87 -23
-43 2 -32 -12 20 -28 33 -9 37 -13 20 -16 -13 -2 -23 -8 -23 -13 0 -5 -12 -9
-27 -9 -34 0 -27 -5 17 -14 21 -3 30 -2 22 3 -10 6 -1 11 28 19 47 12 72 7 68
-13 -4 -20 8 -19 57 5 25 12 45 28 45 36 0 8 8 14 18 14 9 0 24 5 32 11 11 8
8 9 -13 4 -24 -5 -28 -3 -23 12 30 101 31 163 2 163 -8 0 -16 6 -19 13 -2 6
-14 -16 -27 -50z m-27 -93 c-3 -11 -7 -20 -9 -20 -2 0 -4 9 -4 20 0 11 4 20 9
20 5 0 7 -9 4 -20z m-43 -60 c0 -5 -5 -10 -11 -10 -5 0 -7 5 -4 10 3 6 8 10
11 10 2 0 4 -4 4 -10z"/>
<path d="M2191 4376 c-9 -11 -9 -15 1 -20 7 -3 4 -5 -7 -4 -28 2 -75 -13 -75
-23 0 -5 11 -9 25 -9 14 0 25 5 25 12 0 6 3 8 6 5 4 -4 1 -13 -6 -22 -11 -13
-8 -20 14 -43 14 -15 36 -37 47 -49 21 -22 22 -41 4 -98 -3 -11 4 -2 16 20 12
22 23 42 25 44 1 2 15 -6 30 -18 27 -22 64 -28 64 -12 0 5 -12 19 -26 30 l-27
21 32 0 c18 0 30 -4 26 -10 -3 -5 15 -2 40 7 25 10 45 21 45 25 0 13 -68 9
-72 -4 -6 -16 -37 3 -51 33 -7 13 -23 26 -37 28 -14 1 -28 8 -32 15 -5 7 -8 4
-8 -7 0 -32 -17 -9 -25 35 -4 24 -7 46 -6 51 2 12 -16 8 -28 -7z"/>
<path d="M2336 4327 c-20 -14 -18 -54 2 -49 7 1 12 -2 12 -8 0 -20 31 -9 42
15 19 42 -18 70 -56 42z"/>
<path d="M1888 4323 c6 -2 18 -2 25 0 6 3 1 5 -13 5 -14 0 -19 -2 -12 -5z"/>
<path d="M2285 4320 c-3 -6 1 -7 9 -4 18 7 21 14 7 14 -6 0 -13 -4 -16 -10z"/>
<path d="M788 4273 c-13 -3 -18 -15 -18 -43 0 -29 -4 -39 -20 -43 -11 -3 -24
-17 -30 -31 -6 -17 -14 -24 -24 -20 -19 7 -46 -18 -46 -44 0 -24 27 -48 50
-44 9 1 36 -1 59 -7 37 -8 58 0 29 12 -7 3 2 6 20 6 27 1 32 -3 32 -21 0 -30
-10 -44 -37 -52 -18 -6 -24 -2 -29 18 -3 14 -12 26 -20 26 -17 0 -18 -12 -3
-27 8 -8 0 -9 -31 -2 -44 10 -67 6 -31 -6 12 -3 21 -11 21 -17 0 -7 5 -6 14 1
10 8 16 9 21 1 3 -6 11 -7 17 -4 7 4 8 2 4 -4 -4 -7 -16 -12 -26 -12 -10 0
-21 -4 -25 -9 -6 -11 35 -9 53 3 7 4 12 4 11 -1 -3 -13 12 -43 23 -43 5 0 6 4
3 10 -3 5 0 7 8 4 10 -3 21 8 33 34 19 41 65 78 79 64 4 -4 6 3 3 15 -3 12 0
30 8 40 17 23 17 33 1 33 -8 0 -18 -10 -24 -22 -8 -19 -10 -20 -16 -4 -4 10
-3 15 3 11 17 -11 11 23 -11 57 -17 28 -19 29 -13 8 9 -34 12 -47 7 -37 -3 4
-11 7 -20 7 -11 0 -13 7 -8 33 5 24 4 28 -4 17 -6 -8 -11 -10 -12 -5 0 6 -4 1
-9 -10 -6 -15 -9 -6 -9 33 -1 36 -5 51 -12 46 -8 -4 -8 0 0 15 12 21 10 22
-21 14z m-8 -153 c0 -5 -7 -10 -16 -10 -8 0 -12 5 -9 10 3 6 10 10 16 10 5 0
9 -4 9 -10z"/>
<path d="M886 4233 c-11 -11 -6 -49 9 -69 9 -12 14 -14 15 -6 0 7 5 10 10 7 6
-4 10 6 10 22 0 27 -31 59 -44 46z"/>
<path d="M2055 4188 c-7 -35 -9 -38 -12 -18 -3 14 -9 30 -14 35 -7 6 -7 -6 -3
-35 4 -25 7 -67 7 -95 -2 -127 -3 -135 -17 -135 -8 0 -24 -13 -36 -30 -23 -32
-20 -36 12 -19 18 9 20 9 15 -4 -4 -11 -2 -14 8 -10 12 4 13 0 4 -26 -9 -27
-14 -30 -36 -24 -17 4 -24 2 -19 -5 4 -6 -3 -6 -19 1 -13 7 -19 13 -12 15 33
9 38 13 32 22 -5 8 -12 7 -23 -2 -12 -10 -14 -10 -8 0 4 7 2 12 -4 12 -7 0 2
13 19 29 23 22 31 37 30 63 l-1 33 -10 -38 c-7 -26 -15 -37 -24 -33 -8 3 -14
-2 -15 -12 -1 -9 -5 1 -9 23 -4 22 -4 45 0 50 4 6 5 21 3 35 -2 14 -4 33 -5
43 -2 12 -11 17 -34 17 -27 0 -32 -4 -42 -39 -7 -21 -12 -48 -12 -60 0 -26 -5
-26 -41 0 -36 25 -49 21 -84 -25 -26 -34 -27 -37 -11 -61 19 -29 47 -34 41 -7
-5 26 18 23 52 -4 22 -19 25 -25 14 -33 -11 -7 -7 -13 17 -25 18 -9 34 -16 37
-16 3 0 13 -3 21 -8 14 -8 13 -10 -5 -15 -13 -3 -24 0 -27 6 -5 13 -117 16
-121 4 -5 -15 11 -38 23 -33 7 3 16 1 19 -4 4 -6 15 -6 28 2 36 19 80 17 99
-4 31 -36 33 -94 12 -270 -7 -56 -2 -76 41 -198 16 -43 2 -67 -35 -62 -24 3
-24 3 -5 -11 11 -9 22 -14 25 -12 3 2 4 -24 2 -57 -2 -42 -10 -70 -27 -96 -13
-21 -27 -49 -30 -65 -11 -42 -21 -41 -41 7 -10 24 -22 42 -26 40 -5 -3 -8 7
-9 23 0 25 -1 26 -9 8 -6 -15 -9 -8 -9 28 -1 30 -5 46 -11 42 -6 -3 -13 1 -16
10 -5 11 -16 15 -38 13 -24 -2 -32 1 -35 17 -2 11 -8 23 -14 27 -15 9 -18 40
-5 55 5 7 8 18 5 25 -3 8 -6 6 -6 -5 -1 -10 -5 -16 -9 -13 -4 3 -13 -8 -19
-25 -10 -25 -8 -36 14 -77 42 -76 65 -124 61 -127 -7 -8 -113 100 -110 113 2
9 -1 11 -9 6 -8 -5 -10 -3 -4 6 4 7 2 16 -6 21 -10 6 -11 9 -1 9 7 0 12 12 11
28 l-1 27 -8 -25 c-9 -28 -12 -21 -12 30 l0 35 -29 -35 c-16 -19 -29 -39 -29
-45 0 -7 -10 -11 -22 -10 -20 1 -23 8 -26 49 -2 25 -7 44 -11 41 -5 -2 -11 11
-14 30 -3 19 -26 76 -52 126 -40 80 -105 230 -105 244 0 3 11 3 24 -1 30 -7
72 19 91 56 14 27 14 28 -18 33 -18 2 -41 -2 -54 -10 -20 -13 -21 -13 -16 6 5
22 36 37 53 26 5 -3 10 -1 10 5 0 6 5 8 10 5 6 -3 10 1 10 9 0 8 5 18 12 22 7
5 8 3 3 -7 -8 -12 -6 -12 8 0 18 14 23 67 8 89 -7 11 -13 9 -30 -9 -11 -12
-24 -20 -27 -16 -6 6 -48 -39 -42 -45 1 -2 -7 -13 -17 -26 -19 -22 -20 -22
-27 -2 -5 13 -16 20 -32 20 -23 0 -25 3 -19 33 3 17 9 36 14 41 4 5 5 16 1 25
-5 14 -4 15 14 1 18 -14 18 -14 5 3 -22 27 -59 21 -79 -13 -9 -16 -23 -30 -29
-30 -25 0 -9 -71 21 -93 6 -5 -4 -6 -23 -3 -19 4 -35 7 -36 9 -12 28 -88 103
-123 124 -60 34 -83 53 -76 64 3 5 -2 9 -10 9 -31 0 -15 -20 55 -67 70 -46
139 -117 127 -129 -4 -3 -24 11 -46 30 -43 39 -67 49 -36 15 18 -20 18 -20 -7
-15 -23 4 -29 -2 -49 -47 -19 -44 -24 -49 -30 -32 -12 32 -46 58 -68 51 -11
-4 -27 -26 -37 -52 -16 -41 -16 -46 -1 -69 16 -24 16 -26 -9 -35 -15 -6 -31
-10 -36 -10 -17 0 -9 -39 12 -59 12 -11 18 -24 15 -30 -4 -5 -2 -12 4 -16 6
-4 8 -10 5 -15 -10 -17 36 3 49 21 7 10 16 16 19 12 4 -3 7 -1 7 5 0 7 5 12
11 12 6 0 9 -7 5 -15 -12 -32 25 -14 41 20 9 19 21 35 25 35 18 0 58 54 58 77
0 20 -4 23 -22 17 l-21 -6 21 36 c12 21 22 48 22 62 0 33 15 22 40 -29 24 -48
24 -47 7 -47 -8 0 -13 -10 -12 -22 1 -13 5 -21 10 -20 4 2 11 -1 15 -7 4 -8
17 -7 43 4 47 20 46 20 42 -15 -3 -21 0 -30 10 -30 7 0 28 -19 46 -42 18 -24
39 -49 48 -55 8 -7 11 -13 7 -13 -4 0 1 -12 12 -27 29 -42 67 -121 87 -183 10
-30 22 -61 28 -67 6 -9 6 -13 -1 -13 -12 0 -96 91 -130 143 -29 43 -39 49 -18
10 24 -44 49 -79 87 -120 53 -57 53 -61 -4 -42 -28 10 -56 15 -61 11 -6 -3 5
-10 24 -14 65 -16 93 -30 78 -40 -9 -6 -8 -8 7 -6 24 3 45 -9 45 -25 0 -7 -8
-3 -17 8 -9 12 -14 14 -11 5 22 -65 28 -94 35 -154 5 -41 13 -71 21 -74 9 -3
10 3 2 23 -5 14 -10 60 -10 101 0 80 13 100 48 73 15 -13 16 -12 3 4 -9 11
-10 17 -2 17 6 0 11 7 11 15 0 8 5 15 10 15 12 0 13 -13 3 -24 -4 -4 -9 -26
-10 -49 -2 -23 -8 -43 -13 -45 -14 -5 -12 -43 4 -90 8 -22 12 -49 9 -60 -5
-19 -5 -19 -42 -1 -26 12 -49 36 -70 71 -20 33 -40 54 -52 55 -17 2 -18 -1 -7
-20 7 -12 12 -24 12 -27 0 -3 12 -17 28 -32 15 -15 28 -25 28 -22 0 3 10 -4
22 -16 13 -12 39 -71 63 -143 23 -67 45 -131 50 -141 6 -13 5 -17 -3 -13 -6 4
-13 21 -17 37 -4 17 -10 30 -15 30 -5 0 -16 14 -24 30 -39 73 -48 87 -81 125
-20 22 -31 30 -26 18 16 -31 14 -36 -13 -31 -18 4 -23 1 -19 -10 5 -11 1 -13
-17 -7 -14 5 -20 3 -16 -3 3 -6 -1 -12 -10 -14 -9 -2 26 -26 78 -53 51 -28 93
-57 93 -65 0 -19 -67 -33 -99 -20 -17 6 -27 6 -32 -1 -12 -20 14 -25 114 -19
33 2 49 -3 67 -20 12 -12 25 -18 27 -13 3 4 3 2 2 -5 -2 -7 3 -29 11 -50 32
-81 107 -364 130 -487 13 -71 29 -200 35 -285 6 -85 15 -184 20 -220 5 -36 10
-74 10 -85 0 -35 -37 31 -70 125 -30 84 -44 115 -90 195 -76 134 -143 243
-206 335 -87 128 -108 167 -98 188 12 29 16 159 5 142 -6 -8 -14 -36 -17 -62
-4 -27 -10 -48 -15 -48 -10 0 -22 37 -14 49 3 5 1 12 -5 16 -5 3 -10 13 -10
21 0 35 -75 183 -122 241 -29 35 -53 63 -55 63 -7 0 55 -86 73 -100 21 -18 49
-81 80 -177 22 -72 21 -92 -4 -53 -7 12 -10 26 -6 33 4 7 4 9 -1 5 -4 -4 -30
24 -57 62 -27 39 -56 70 -63 70 -9 0 -12 -6 -9 -15 4 -8 11 -15 16 -15 6 0 5
-6 -2 -15 -9 -11 -9 -15 -1 -15 7 0 10 -4 7 -9 -4 -5 2 -7 13 -4 12 3 26 -5
40 -23 22 -28 29 -70 9 -58 -7 4 -8 3 -4 -5 4 -6 12 -9 17 -6 5 4 10 1 10 -4
1 -6 2 -17 3 -23 1 -7 -8 -16 -19 -20 -13 -5 -8 -6 13 -3 26 4 32 1 32 -14 0
-11 13 -28 30 -38 40 -25 342 -484 328 -499 -2 -2 -16 8 -31 22 -16 15 -27 20
-27 12 0 -14 59 -54 73 -50 5 1 6 -2 3 -7 -3 -5 1 -15 10 -22 22 -18 40 -56
75 -157 17 -48 42 -106 55 -129 27 -47 94 -245 94 -278 0 -11 4 -25 9 -31 5
-5 17 -45 26 -88 14 -64 18 -128 17 -320 0 -133 -5 -275 -11 -316 -6 -41 -15
-138 -21 -215 -5 -77 -11 -164 -14 -192 -4 -47 -2 -53 15 -53 16 0 19 7 19 50
0 27 4 93 10 147 44 440 46 506 35 953 -6 232 -5 266 14 382 23 137 115 432
157 505 13 23 49 63 79 88 61 52 76 83 19 40 l-36 -27 17 31 c34 67 73 122 80
111 3 -6 11 -8 16 -4 6 3 3 -11 -6 -33 -21 -49 -3 -32 30 30 14 27 23 53 19
58 -3 5 0 8 8 7 7 -2 12 5 12 14 -1 10 3 16 10 15 6 -1 10 4 8 11 -1 8 2 11 7
7 11 -6 36 33 27 43 -3 3 -6 2 -6 -3 0 -4 -7 -2 -15 5 -12 10 -15 10 -15 0 0
-8 -2 -11 -5 -8 -3 3 -3 13 1 22 4 11 10 13 18 7 8 -6 15 -2 22 14 9 19 9 22
-3 18 -10 -4 -5 9 12 35 15 23 30 42 32 42 3 0 -2 -11 -11 -25 -25 -39 -19
-43 8 -5 13 19 22 38 19 43 -2 4 -1 6 4 5 11 -4 66 58 82 92 l12 25 -20 -25
c-16 -19 -21 -21 -21 -9 0 9 7 22 15 29 16 14 21 55 5 45 -11 -7 -14 8 -4 18
3 3 17 30 31 59 19 43 21 49 6 35 -10 -10 -24 -32 -30 -50 -12 -30 -13 -28 -9
28 l5 60 -14 -50 c-7 -27 -14 -62 -14 -76 -1 -29 -23 -54 -36 -41 -4 4 -5 0
-3 -8 3 -8 11 -14 17 -12 7 1 10 -2 6 -8 -3 -6 -10 -8 -15 -5 -5 3 -8 -3 -7
-13 1 -20 -71 -142 -84 -142 -5 0 -9 -7 -9 -15 0 -8 -49 -92 -108 -187 -149
-239 -170 -277 -219 -403 -23 -60 -42 -105 -43 -98 0 6 7 66 16 133 14 110 18
125 42 146 22 19 23 23 7 17 -20 -6 -20 -6 -1 15 11 12 14 22 8 22 -7 0 -12
-5 -12 -11 0 -5 -4 -8 -10 -4 -5 3 -7 52 -4 123 6 114 -1 224 -31 501 -17 155
-21 391 -8 400 5 3 13 14 16 25 6 14 3 17 -8 12 -14 -5 -14 -2 0 24 9 17 12
30 8 30 -4 0 -2 5 5 12 7 7 12 25 12 41 0 19 13 44 41 75 22 26 56 76 75 112
19 36 27 56 19 45 -9 -11 -27 -41 -40 -66 -13 -25 -44 -68 -69 -95 -25 -27
-46 -53 -46 -58 0 -5 -3 -7 -6 -4 -3 4 0 16 6 28 9 18 9 24 -1 30 -17 11 -39
1 -33 -15 3 -7 1 -16 -4 -19 -5 -3 -17 19 -27 48 -15 44 -16 63 -8 107 l10 54
12 -30 c7 -16 16 -52 20 -80 l7 -50 8 60 c4 33 16 75 27 94 12 19 16 37 11 40
-5 3 12 35 39 70 27 36 54 80 60 98 6 18 12 33 14 33 7 0 95 -88 95 -94 0 -3
-13 -34 -30 -68 -29 -62 -22 -58 23 12 25 38 29 39 142 26 28 -2 40 -3 28 0
-13 3 -23 10 -23 15 0 6 -5 7 -12 3 -7 -5 -8 -3 -4 5 5 7 19 16 32 21 13 5 24
15 24 21 0 6 -6 9 -12 6 -7 -3 -30 -12 -50 -21 l-38 -16 0 30 c0 30 24 43 33
18 3 -10 7 -10 19 0 9 7 23 10 32 6 18 -7 21 7 5 23 -7 7 -24 7 -57 -3 -56
-17 -66 -7 -45 44 16 38 7 56 -22 50 -12 -2 -18 -14 -20 -36 -2 -26 0 -30 10
-22 10 8 13 7 11 -5 -1 -9 -7 -20 -12 -23 -6 -4 -14 -16 -18 -27 -7 -16 -11
-11 -21 30 -8 28 -11 60 -8 73 4 16 1 22 -12 22 -14 0 -16 -9 -15 -52 2 -29 2
-57 1 -62 -1 -11 -35 32 -45 59 -7 17 -10 13 -21 -23 -7 -24 -30 -67 -51 -97
-37 -55 -51 -69 -40 -40 9 25 -30 18 -47 -9 -14 -20 -16 -45 -7 -81 5 -21 -1
-45 -11 -45 -6 0 -9 6 -6 13 2 6 -1 19 -8 27 -7 8 -15 52 -18 97 -4 64 -2 83
9 87 8 3 14 12 14 19 0 9 12 14 30 15 32 1 31 6 15 -74 -4 -18 -2 -25 7 -22 8
3 17 37 23 89 6 46 17 95 25 109 8 14 13 30 11 35 -8 28 -11 95 -4 95 4 0 9
47 10 105 1 58 1 105 -1 105 -2 0 -7 -19 -11 -42z m-824 -255 c13 -16 12 -17
-3 -4 -10 7 -18 15 -18 17 0 8 8 3 21 -13z m9 -126 c0 -5 9 -22 21 -38 26 -37
17 -37 -22 1 -18 16 -34 28 -38 26 -3 -2 -7 11 -8 30 l-3 34 25 -22 c14 -12
25 -26 25 -31z m110 23 c0 -5 -5 -10 -11 -10 -5 0 -7 5 -4 10 3 6 8 10 11 10
2 0 4 -4 4 -10z m-230 -80 c-8 -5 -19 -10 -25 -10 -5 0 -3 5 5 10 8 5 20 10
25 10 6 0 3 -5 -5 -10z m75 -20 c3 -5 -1 -10 -9 -10 -8 0 -18 5 -21 10 -3 6 1
10 9 10 8 0 18 -4 21 -10z m1044 -23 c12 -15 12 -17 -3 -11 -9 3 -16 13 -16
22 0 8 1 13 3 11 1 -2 9 -12 16 -22z m-1301 -1 c-7 -8 -15 -12 -17 -11 -5 6
10 25 20 25 5 0 4 -6 -3 -14z m337 -36 c3 -5 2 -10 -3 -10 -11 0 -23 -36 -14
-44 3 -3 7 -18 8 -32 3 -26 3 -26 -15 -7 -10 11 -23 29 -29 40 -10 17 -8 22 8
26 11 3 20 12 20 21 0 18 15 21 25 6z m88 -233 c-3 -5 -1 -7 4 -4 11 7 42 -65
47 -107 1 -15 6 -29 9 -33 4 -3 7 -20 6 -37 0 -31 0 -31 -15 9 -8 22 -16 45
-17 50 -1 6 -25 56 -54 112 -29 55 -54 118 -57 140 -3 21 -8 49 -11 63 -3 14
17 -22 44 -79 28 -56 48 -108 44 -114z m637 -146 c0 -5 -7 -12 -16 -15 -14 -5
-15 -4 -4 9 14 17 20 19 20 6z m-446 -70 c-5 -22 -10 -29 -17 -22 -7 7 -7 19
2 37 15 34 23 26 15 -15z m422 13 c-4 -9 -9 -15 -11 -12 -3 3 -3 13 1 22 4 9
9 15 11 12 3 -3 3 -13 -1 -22z m-476 -53 c0 -6 -4 -13 -10 -16 -5 -3 -10 1
-10 9 0 9 5 16 10 16 6 0 10 -4 10 -9z m151 -117 c27 -20 63 -56 81 -80 17
-24 33 -44 35 -44 2 0 -8 21 -22 47 -14 27 -25 55 -25 65 0 9 -4 20 -10 23 -5
3 -10 10 -10 16 0 40 108 -61 138 -129 l19 -43 27 43 26 43 -7 -40 c-5 -22 -7
-80 -6 -130 2 -81 0 -88 -13 -71 -8 12 -15 46 -16 80 -1 50 -2 53 -5 19 -2
-24 -8 -43 -13 -43 -5 0 -23 25 -40 55 -17 30 -34 55 -36 55 -7 0 25 -60 58
-108 17 -24 28 -46 25 -48 -10 -10 -77 58 -77 78 0 10 -4 16 -10 13 -5 -3 -10
2 -10 12 0 11 -5 24 -12 31 -7 7 -8 12 -2 12 5 0 5 3 -1 8 -5 4 -17 21 -26 37
-9 17 -21 29 -28 27 -7 -1 -10 2 -6 8 8 14 -18 13 -32 -1 -7 -7 -17 -8 -25 -3
-7 5 -19 9 -26 10 -25 4 19 -35 75 -67 64 -37 83 -64 52 -74 -11 -4 -33 -2
-48 5 -22 9 -27 16 -23 36 2 14 0 24 -7 24 -6 0 -11 -9 -11 -20 0 -11 -4 -20
-10 -20 -5 0 -10 -17 -10 -37 0 -37 1 -38 18 -17 14 17 26 20 70 16 44 -3 55
-9 73 -33 11 -16 38 -38 59 -49 46 -23 69 -69 98 -195 27 -115 42 -251 40
-355 l-1 -81 -18 38 -18 38 6 -40 c3 -22 10 -48 15 -58 6 -13 3 -27 -12 -50
-19 -28 -19 -29 -2 -9 11 12 26 22 34 21 10 0 10 -2 1 -6 -8 -3 -13 -22 -13
-46 0 -41 -55 -372 -84 -512 -9 -38 -15 -121 -16 -184 0 -63 -3 -111 -7 -107
-36 36 -101 345 -107 506 -2 58 -6 112 -9 120 -3 8 -12 70 -21 136 -9 67 -35
193 -57 280 -23 88 -45 186 -49 219 -4 33 -13 79 -19 103 -7 24 -9 53 -6 65 4
14 3 17 -2 10 -13 -18 -53 124 -53 186 0 39 3 49 14 45 8 -3 19 -22 25 -42
l10 -37 -5 45 c-4 25 -13 60 -21 78 -14 29 -14 39 -2 75 8 23 13 46 11 51 -5
15 6 36 19 36 6 0 33 -16 60 -36z m299 1 c0 -8 -4 -15 -10 -15 -5 0 -7 7 -4
15 4 8 8 15 10 15 2 0 4 -7 4 -15z m6 -101 c4 -65 14 -176 34 -394 5 -52 9
-129 8 -170 l-1 -75 -8 65 c-4 36 -20 121 -34 190 -15 69 -30 139 -34 155 -7
35 -8 218 -1 255 5 23 22 51 28 45 1 -1 5 -33 8 -71z m-422 -175 c8 -30 23
-87 34 -126 33 -122 10 -81 -32 55 -22 70 -41 134 -44 142 -4 13 -2 13 12 -1
9 -9 23 -40 30 -70z m936 -143 c0 -2 -8 -10 -17 -17 -16 -13 -17 -12 -4 4 13
16 21 21 21 13z m-190 -320 c-8 -25 -18 -36 -31 -36 -25 0 -24 5 7 46 32 41
40 38 24 -10z"/>
<path d="M1610 2801 c0 -7 -4 -9 -10 -6 -6 4 -7 -1 -3 -11 6 -15 7 -15 15 1 6
9 7 19 4 22 -3 4 -6 1 -6 -6z"/>
<path d="M1602 2720 c0 -19 2 -27 5 -17 2 9 2 25 0 35 -3 9 -5 1 -5 -18z"/>
<path d="M1887 2619 c4 -13 8 -18 11 -10 2 7 -1 18 -6 23 -8 8 -9 4 -5 -13z"/>
<path d="M1902 2571 c-11 -6 -10 -10 4 -15 9 -3 19 -4 22 -1 3 3 0 5 -7 5 -7
0 -9 5 -6 10 7 12 4 12 -13 1z"/>
<path d="M1861 2425 c-1 -15 -3 -17 -10 -7 -7 11 -10 10 -15 -3 -3 -9 -4 -21
-1 -25 9 -15 -14 -21 -37 -10 l-23 11 21 -18 c17 -15 24 -37 33 -123 9 -74 9
-113 2 -133 -6 -15 -9 -27 -7 -27 12 0 75 102 70 114 -3 8 -1 17 5 21 6 3 11
15 11 26 0 10 4 19 9 19 5 0 11 8 14 18 2 9 8 26 12 37 3 11 -4 4 -17 -16 -14
-22 -29 -34 -38 -31 -13 5 -13 3 -1 -12 13 -15 12 -21 -4 -48 -10 -17 -13 -28
-6 -24 6 4 11 3 11 -3 0 -16 -18 -22 -23 -9 -7 20 3 79 19 115 11 24 12 38 4
52 -5 11 -7 27 -3 37 4 11 3 15 -5 10 -6 -4 -12 4 -15 21 -2 18 -5 21 -6 8z"/>
<path d="M1910 2429 c0 -5 -4 -7 -10 -4 -14 9 -12 -11 3 -23 9 -8 12 -4 13 14
1 13 0 24 -2 24 -2 0 -4 -5 -4 -11z"/>
<path d="M1940 2285 c0 -5 5 -17 10 -25 5 -8 10 -10 10 -5 0 6 -5 17 -10 25
-5 8 -10 11 -10 5z"/>
<path d="M1786 2070 c3 -14 10 -32 15 -40 7 -13 8 -13 9 2 0 9 2 22 3 30 2 7
2 9 -1 5 -2 -4 -11 0 -19 10 -13 17 -14 16 -7 -7z"/>
<path d="M1898 2022 c-9 -4 -27 -20 -39 -36 l-23 -29 41 23 c22 13 40 29 40
37 0 7 -1 13 -1 12 -1 0 -9 -3 -18 -7z"/>
<path d="M1800 1968 c-6 -18 -19 -49 -27 -70 -8 -20 -13 -42 -10 -50 3 -9 7
-7 12 7 4 11 20 33 34 50 14 16 18 23 9 16 -16 -12 -18 -11 -18 8 0 12 5 31
11 43 6 11 9 22 6 24 -2 3 -10 -10 -17 -28z"/>
<path d="M1950 4165 c13 -14 26 -25 28 -25 3 0 -5 11 -18 25 -13 14 -26 25
-28 25 -3 0 5 -11 18 -25z"/>
<path d="M2005 4090 c3 -5 8 -10 11 -10 2 0 4 5 4 10 0 6 -5 10 -11 10 -5 0
-7 -4 -4 -10z"/>
<path d="M2206 4083 c-6 -14 -5 -15 5 -6 7 7 10 15 7 18 -3 3 -9 -2 -12 -12z"/>
<path d="M2177 4025 c-24 -50 -20 -58 4 -12 11 22 19 41 17 43 -3 2 -12 -12
-21 -31z"/>
<path d="M664 3938 c12 -7 21 -7 28 0 6 6 0 10 -18 10 -23 0 -24 -2 -10 -10z"/>
<path d="M2141 3924 c0 -11 3 -14 6 -6 3 7 2 16 -1 19 -3 4 -6 -2 -5 -13z"/>
<path d="M2131 3874 c0 -11 3 -14 6 -6 3 7 2 16 -1 19 -3 4 -6 -2 -5 -13z"/>
<path d="M3064 3641 c-15 -23 -31 -41 -35 -41 -14 0 -11 -24 7 -59 9 -18 17
-43 18 -56 0 -13 4 -21 8 -19 4 2 9 0 13 -6 3 -5 0 -10 -7 -10 -8 0 -21 -13
-31 -29 -21 -36 -258 -277 -350 -355 -82 -70 -150 -185 -74 -125 15 11 27 17
27 14 0 -4 6 -2 13 4 8 6 13 24 12 41 -2 26 10 40 92 111 51 44 102 93 114
107 11 15 56 64 100 109 43 45 79 86 79 92 0 14 21 19 60 14 24 -3 31 -2 22 5
-11 8 -11 10 1 15 8 3 24 3 34 1 11 -3 30 5 46 20 34 31 37 32 30 5 -5 -19 -4
-20 16 -10 47 25 18 46 -64 46 l-60 0 -3 38 c-2 21 2 45 9 53 10 13 10 17 0
23 -7 5 -11 12 -9 16 1 4 -7 14 -19 22 -20 14 -23 12 -49 -26z m26 -11 c0 -5
-4 -10 -10 -10 -5 0 -10 5 -10 10 0 6 5 10 10 10 6 0 10 -4 10 -10z m-14 -32
c4 -7 3 -8 -4 -4 -8 5 -12 -1 -13 -16 0 -13 -3 -17 -6 -10 -5 13 2 42 11 42 3
0 8 -5 12 -12z m44 -72 c0 -18 -10 -25 -25 -20 -7 3 -11 14 -8 24 5 20 33 16
33 -4z m-470 -535 c-10 -20 -30 -29 -30 -14 0 10 33 44 37 39 3 -2 0 -14 -7
-25z"/>
<path d="M2970 3630 c0 -16 2 -30 4 -30 2 0 6 14 8 30 3 17 1 30 -4 30 -4 0
-8 -13 -8 -30z"/>
<path d="M2043 3628 c-19 -25 -24 -38 -14 -38 6 0 11 6 11 14 0 8 6 16 13 19
6 2 9 7 6 11 -3 4 -11 1 -16 -6z"/>
<path d="M1902 3610 c0 -14 2 -19 5 -12 2 6 2 18 0 25 -3 6 -5 1 -5 -13z"/>
<path d="M1000 3610 c0 -5 7 -10 16 -10 8 0 12 5 9 10 -3 6 -10 10 -16 10 -5
0 -9 -4 -9 -10z"/>
<path d="M2663 3593 c-20 -7 -15 -34 9 -54 25 -22 34 -24 40 -6 14 37 -17 74
-49 60z"/>
<path d="M3227 3550 c23 -11 48 -17 57 -14 29 11 16 25 -21 23 -21 -1 -47 1
-58 4 -11 4 -1 -2 22 -13z"/>
<path d="M2580 3542 c0 -12 6 -25 14 -28 7 -3 11 -15 9 -27 -4 -26 2 -36 44
-65 38 -27 40 -21 -47 -197 -47 -94 -65 -143 -81 -223 -11 -57 -19 -106 -17
-108 3 -2 12 33 22 79 25 121 42 166 108 295 33 64 62 118 63 120 2 2 14 -8
28 -22 32 -31 47 -33 47 -5 0 19 5 21 60 17 56 -3 60 -2 60 19 0 17 -9 24 -37
32 -21 6 -45 11 -54 11 -9 0 -20 7 -23 16 -8 21 -7 31 2 18 10 -16 48 0 62 25
9 17 6 23 -12 34 -13 8 -39 13 -58 13 -32 -1 -35 -4 -33 -29 1 -15 -2 -27 -8
-27 -5 0 -9 7 -9 15 0 9 -6 12 -15 9 -8 -4 -13 -10 -10 -15 9 -13 -18 -49 -37
-49 -20 0 -28 11 -34 48 -3 15 -14 36 -25 47 -19 19 -19 19 -19 -3z"/>
<path d="M2982 3528 c6 -17 36 -34 44 -25 4 4 -1 14 -12 22 -23 18 -37 19 -32
3z"/>
<path d="M1190 3508 c0 -12 42 -79 47 -74 3 2 -7 22 -21 43 -14 20 -26 35 -26
31z"/>
<path d="M2640 3475 c7 -8 17 -15 22 -15 6 0 5 7 -2 15 -7 8 -17 15 -22 15 -6
0 -5 -7 2 -15z"/>
<path d="M1346 3340 c7 -37 23 -74 30 -68 2 2 -5 26 -16 54 -17 41 -19 44 -14
14z"/>
<path d="M1275 3280 c-3 -6 1 -7 9 -4 18 7 21 14 7 14 -6 0 -13 -4 -16 -10z"/>
<path d="M1870 3275 c0 -8 4 -15 10 -15 5 0 7 7 4 15 -4 8 -8 15 -10 15 -2 0
-4 -7 -4 -15z"/>
<path d="M2027 3190 c-20 -46 -20 -50 -8 -50 11 0 34 65 29 80 -2 6 -11 -8
-21 -30z"/>
<path d="M1330 3206 c0 -2 8 -10 18 -17 15 -13 16 -12 3 4 -13 16 -21 21 -21
13z"/>
<path d="M2752 3170 c0 -14 2 -19 5 -12 2 6 2 18 0 25 -3 6 -5 1 -5 -13z"/>
<path d="M1880 3080 c0 -5 5 -10 10 -10 6 0 10 5 10 10 0 6 -4 10 -10 10 -5 0
-10 -4 -10 -10z"/>
<path d="M2042 3050 c0 -19 2 -27 5 -17 2 9 2 25 0 35 -3 9 -5 1 -5 -18z"/>
<path d="M965 3037 c-2 -7 -6 -27 -7 -45 l-3 -34 -24 21 c-15 13 -31 19 -40
15 -9 -3 -23 -8 -33 -11 -9 -3 -19 -14 -22 -25 -5 -21 18 -79 32 -77 4 1 14 1
22 0 12 -1 11 -4 -3 -12 -9 -6 -14 -15 -11 -21 5 -7 -2 -9 -20 -4 -30 7 -66
-8 -66 -29 0 -22 33 -35 73 -28 35 5 36 5 31 -24 -4 -27 -2 -30 19 -26 20 4
25 -1 35 -33 13 -45 9 -53 -19 -35 -12 7 -23 10 -26 7 -7 -6 141 -76 162 -76
8 0 15 5 15 11 0 5 -5 7 -11 3 -6 -3 -28 1 -48 11 -34 15 -40 23 -50 70 -12
51 -11 54 15 80 25 25 27 25 45 9 16 -14 19 -15 14 -3 -3 9 1 22 10 29 8 7 15
26 15 41 0 22 -6 32 -26 39 l-25 10 20 26 c25 31 27 76 6 94 -10 9 -15 9 -15
1 0 -6 -4 -11 -10 -11 -5 0 -10 6 -10 14 0 17 -40 29 -45 13z m65 -202 c0 -2
-10 -9 -22 -15 -22 -11 -22 -10 -4 4 21 17 26 19 26 11z"/>
<path d="M500 3026 c0 -9 -5 -16 -11 -16 -7 0 -5 -10 5 -25 9 -13 16 -31 16
-40 0 -9 8 -27 17 -42 17 -25 17 -26 -4 -15 -11 6 -23 8 -27 4 -4 -3 -4 1 0
11 4 12 1 17 -11 17 -9 0 -13 5 -10 10 3 6 -5 10 -19 10 -13 0 -31 2 -38 5
-32 12 -75 -53 -47 -71 6 -3 9 -14 6 -25 -5 -17 10 -36 43 -54 13 -7 13 -6 2
7 -10 13 -9 16 9 21 19 5 20 8 9 21 -13 17 -4 21 24 10 9 -3 16 -12 16 -20 0
-8 6 -14 13 -14 6 0 3 -7 -8 -16 -11 -8 -20 -19 -20 -24 0 -5 -8 -18 -17 -30
-10 -11 -14 -20 -9 -20 5 0 14 7 21 15 7 8 18 15 24 15 6 0 -4 -14 -22 -30
-37 -35 -33 -39 9 -9 16 11 29 26 29 34 0 7 7 15 15 19 8 3 15 1 15 -4 0 -19
21 -10 30 13 l9 22 0 -22 c1 -14 -9 -29 -26 -39 -16 -10 -38 -23 -51 -31 -12
-8 -20 -18 -16 -24 4 -6 13 -4 25 7 11 9 22 14 26 10 5 -4 0 -12 -9 -17 -11
-6 -15 -16 -11 -27 6 -15 5 -15 -10 -4 -17 14 -42 7 -32 -9 4 -5 1 -9 -4 -9
-6 0 -11 -7 -11 -15 0 -41 66 12 90 73 7 17 14 32 16 32 1 0 15 -11 31 -26
l27 -25 18 23 c22 30 32 68 19 81 -7 7 -8 3 -5 -9 3 -13 -4 -28 -22 -44 l-27
-25 14 25 c7 14 12 28 11 32 -1 4 -3 20 -4 37 -2 24 -5 28 -15 19 -8 -6 -17
-7 -21 -3 -4 4 -1 10 6 12 8 3 12 26 12 66 -1 61 -1 61 -18 41 l-18 -21 -11
24 c-10 21 -10 23 3 13 21 -18 19 8 -3 33 -10 10 -18 26 -18 35 0 9 -8 18 -17
20 -11 2 -18 -3 -18 -12z"/>
<path d="M1982 2965 c0 -16 2 -22 5 -12 2 9 2 23 0 30 -3 6 -5 -1 -5 -18z"/>
<path d="M635 2953 c-11 -14 -20 -30 -19 -34 1 -5 2 -23 3 -40 1 -27 3 -30 16
-19 12 10 13 16 4 27 -9 10 -9 20 2 40 l14 26 6 -34 6 -34 2 35 c1 52 -11 64
-34 33z"/>
<path d="M2680 2959 c0 -5 5 -7 10 -4 6 3 10 8 10 11 0 2 -4 4 -10 4 -5 0 -10
-5 -10 -11z"/>
<path d="M1980 2894 c0 -14 4 -23 9 -20 5 3 7 15 4 26 -7 28 -13 25 -13 -6z"/>
<path d="M698 2780 c35 -16 90 -46 123 -66 33 -20 62 -34 65 -32 5 6 -138 90
-191 112 -65 28 -63 16 3 -14z"/>
<path d="M2422 2759 c2 -24 20 -33 33 -16 3 4 2 5 -2 2 -4 -3 -13 5 -20 17
l-12 23 1 -26z"/>
<path d="M390 2680 c0 -18 4 -20 23 -14 12 3 29 10 37 15 13 7 13 8 0 9 -8 0
-25 3 -37 6 -19 5 -23 2 -23 -16z"/>
<path d="M2345 2639 c-4 -6 -5 -12 -2 -15 2 -3 7 2 10 11 7 17 1 20 -8 4z"/>
<path d="M2333 2575 c0 -22 2 -30 4 -17 2 12 2 30 0 40 -3 9 -5 -1 -4 -23z"/>
<path d="M1110 2456 c0 -2 7 -7 16 -10 8 -3 12 -2 9 4 -6 10 -25 14 -25 6z"/>
<path d="M1147 2409 c7 -7 15 -10 18 -7 3 3 -2 9 -12 12 -14 6 -15 5 -6 -5z"/>
<path d="M1220 2096 c0 -2 8 -10 18 -17 15 -13 16 -12 3 4 -13 16 -21 21 -21
13z"/>
<path d="M1432 1996 c7 -8 15 -12 17 -11 5 6 -10 25 -20 25 -5 0 -4 -6 3 -14z"/>
<path d="M1173 1993 c9 -2 25 -2 35 0 9 3 1 5 -18 5 -19 0 -27 -2 -17 -5z"/>
<path d="M1278 1913 c7 -3 16 -2 19 1 4 3 -2 6 -13 5 -11 0 -14 -3 -6 -6z"/>
<path d="M1500 1901 c0 -6 4 -13 10 -16 6 -3 7 1 4 9 -7 18 -14 21 -14 7z"/>
</g>
</svg>
