<?xml version="1.0" standalone="no"?>
<!DOCTYPE svg PUBLIC "-//W3C//DTD SVG 20010904//EN"
 "http://www.w3.org/TR/2001/REC-SVG-20010904/DTD/svg10.dtd">
<svg version="1.0" xmlns="http://www.w3.org/2000/svg"
 width="512.000000pt" height="512.000000pt" viewBox="0 0 512.000000 512.000000"
 preserveAspectRatio="xMidYMid meet">

<g transform="translate(0.000000,512.000000) scale(0.100000,-0.100000)"
fill="#000000" stroke="none">
<path d="M825 5102 c-27 -9 -165 -87 -305 -172 -287 -174 -349 -227 -414 -349
-72 -138 -115 -390 -103 -611 42 -777 595 -1688 1616 -2664 779 -744 1501
-1175 2145 -1281 298 -49 632 -16 817 81 122 64 175 127 349 414 85 140 162
278 172 305 21 62 22 116 3 181 -30 102 -40 110 -614 493 -295 197 -557 369
-581 381 -55 28 -145 37 -205 20 -89 -25 -123 -57 -301 -286 -94 -120 -179
-226 -189 -234 -11 -9 -39 -15 -74 -15 -51 0 -67 7 -176 69 -279 159 -478 317
-799 634 -374 369 -557 593 -723 884 -83 145 -96 193 -69 245 9 19 102 98 237
203 231 180 264 214 289 305 17 60 8 150 -20 205 -12 24 -184 286 -381 581
-383 574 -391 584 -493 614 -65 19 -119 18 -181 -3z m151 -169 c32 -16 85 -90
384 -538 191 -286 355 -535 365 -554 21 -42 16 -99 -13 -136 -11 -13 -105 -91
-208 -171 -223 -173 -247 -195 -282 -254 -24 -40 -27 -55 -27 -140 l0 -95 69
-125 c182 -327 365 -558 731 -925 366 -366 598 -549 923 -730 114 -63 129 -68
196 -73 90 -6 156 14 213 62 21 19 113 129 202 245 166 213 196 241 256 241
14 0 39 -7 55 -15 15 -8 264 -172 552 -365 564 -379 567 -381 555 -457 -9 -52
-292 -515 -352 -574 -97 -97 -247 -144 -490 -155 -538 -25 -1206 270 -1900
839 -280 230 -671 602 -919 877 -665 734 -1024 1372 -1102 1963 -30 222 -1
497 65 632 48 98 117 154 381 312 129 77 242 143 250 146 28 10 59 7 96 -10z"/>
<path d="M2880 4433 c-60 -22 -81 -100 -37 -141 20 -19 42 -24 149 -32 151
-11 252 -31 373 -72 405 -138 733 -451 886 -846 55 -144 98 -350 99 -477 0
-69 15 -103 51 -124 31 -17 71 -9 99 21 16 18 20 35 20 96 0 153 -45 379 -109
544 -210 541 -716 941 -1286 1017 -105 13 -226 20 -245 14z"/>
<path d="M2843 3898 c-31 -33 -31 -87 1 -117 20 -19 41 -24 126 -31 131 -12
233 -40 345 -95 177 -87 326 -234 417 -411 66 -127 108 -287 108 -407 0 -40 5
-54 29 -78 39 -38 74 -38 113 2 31 30 31 30 25 117 -18 270 -129 521 -316 711
-196 200 -443 314 -711 328 -112 5 -115 5 -137 -19z"/>
<path d="M2845 3385 c-48 -47 -23 -126 42 -139 15 -3 52 -8 81 -12 78 -9 179
-64 241 -129 64 -68 97 -137 111 -235 13 -89 24 -114 57 -129 36 -16 59 -13
88 12 34 29 41 82 21 175 -48 229 -213 406 -432 462 -110 28 -178 27 -209 -5z"/>
</g>
</svg>
