<?xml version="1.0" standalone="no"?>
<!DOCTYPE svg PUBLIC "-//W3C//DTD SVG 20010904//EN"
 "http://www.w3.org/TR/2001/REC-SVG-20010904/DTD/svg10.dtd">
<svg version="1.0" xmlns="http://www.w3.org/2000/svg"
 width="512.000000pt" height="512.000000pt" viewBox="0 0 512.000000 512.000000"
 preserveAspectRatio="xMidYMid meet">

<g transform="translate(0.000000,512.000000) scale(0.100000,-0.100000)"
fill="#000000" stroke="none">
<path d="M3144 5111 c-12 -5 -31 -22 -43 -37 -21 -27 -22 -32 -19 -332 l3
-304 28 -24 c41 -35 99 -33 138 5 l29 29 0 301 0 301 -27 30 c-30 32 -75 45
-109 31z"/>
<path d="M2269 4921 c-23 -23 -29 -38 -29 -72 0 -41 3 -45 202 -246 203 -204
231 -225 285 -215 42 8 73 50 73 100 0 45 0 45 -177 225 -98 99 -196 192 -217
208 -52 39 -98 39 -137 0z"/>
<path d="M3954 4921 c-21 -15 -119 -110 -216 -209 -177 -179 -178 -181 -178
-225 0 -49 31 -91 73 -99 54 -10 82 11 285 215 199 201 202 205 202 246 0 34
-6 49 -29 72 -39 39 -84 39 -137 0z"/>
<path d="M2430 4102 c-13 -10 -103 -153 -200 -318 l-177 -299 -286 -3 -287 -2
0 84 c0 150 -51 257 -158 333 -121 86 -297 83 -414 -7 -102 -78 -148 -180
-148 -326 l0 -84 -158 0 c-107 0 -176 -5 -215 -15 -188 -49 -328 -191 -372
-377 -22 -96 -22 -2602 0 -2697 40 -170 170 -308 345 -367 53 -18 131 -19
2200 -19 l2145 0 66 23 c85 29 141 65 207 133 59 60 114 163 131 247 8 37 11
443 11 1335 0 1412 2 1348 -63 1471 -37 72 -123 161 -188 198 -101 55 -130 61
-353 67 l-209 6 -177 299 c-97 165 -187 308 -200 318 -21 17 -60 18 -750 18
-690 0 -729 -1 -750 -18z m1514 -396 c69 -118 126 -217 126 -220 0 -3 -400 -6
-890 -6 -490 0 -890 3 -890 6 0 3 57 102 126 220 l126 214 638 0 638 0 126
-214z m-2744 32 c62 -42 75 -70 78 -169 l4 -89 -162 0 -162 0 4 89 c2 72 7 95
24 118 35 48 82 73 134 73 32 0 57 -7 80 -22z m3544 -487 c61 -30 117 -87 148
-149 l23 -47 0 -1315 0 -1315 -27 -50 c-34 -65 -101 -127 -164 -151 -48 -18
-108 -19 -2164 -19 -2056 0 -2116 1 -2164 19 -63 24 -130 86 -164 151 l-27 50
-3 1290 c-2 915 1 1303 8 1335 23 93 103 180 197 215 32 11 370 13 2163 12
l2125 -2 49 -24z"/>
<path d="M2977 2986 c-87 -16 -199 -48 -269 -78 -45 -19 -78 -61 -78 -100 0
-26 38 -75 68 -87 28 -12 41 -10 127 19 295 98 587 77 851 -64 461 -245 675
-791 503 -1282 -113 -325 -375 -573 -706 -669 -539 -157 -1107 138 -1292 669
-81 231 -78 506 9 726 37 94 2 165 -82 165 -57 0 -89 -40 -126 -157 -46 -146
-57 -219 -57 -388 0 -269 64 -479 213 -705 59 -89 195 -231 292 -304 139 -105
337 -192 517 -228 119 -23 347 -23 465 0 390 77 717 327 896 682 189 375 171
839 -46 1198 -186 308 -471 513 -827 593 -97 22 -358 27 -458 10z"/>
<path d="M804 2642 c-51 -41 -57 -97 -15 -144 l29 -33 302 0 302 0 29 33 c31
35 36 66 17 107 -24 52 -42 55 -355 55 -258 0 -290 -2 -309 -18z"/>
<path d="M2307 2649 c-22 -13 -47 -61 -47 -93 0 -14 13 -40 29 -58 24 -27 36
-33 71 -33 100 0 136 135 49 181 -32 16 -76 18 -102 3z"/>
<path d="M3020 2545 c-242 -49 -450 -205 -564 -425 -58 -111 -85 -211 -93
-335 -32 -558 505 -985 1044 -829 493 143 734 695 503 1153 -164 327 -533 508
-890 436z m315 -205 c219 -56 404 -247 450 -466 68 -319 -123 -635 -440 -730
-85 -26 -258 -24 -342 3 -312 102 -495 412 -428 727 34 161 159 328 306 410
134 74 302 95 454 56z"/>
<path d="M3144 2130 c-12 -4 -31 -21 -44 -37 -17 -22 -21 -36 -17 -68 7 -53
40 -80 107 -89 29 -4 65 -13 80 -21 43 -22 88 -81 95 -122 15 -87 29 -117 66
-137 42 -23 79 -17 116 20 23 23 25 31 21 97 -10 176 -143 323 -322 356 -69
13 -74 13 -102 1z"/>
</g>
</svg>
