<?xml version="1.0" encoding="UTF-8"?>
<svg version="1.1" xmlns="http://www.w3.org/2000/svg" width="512" height="512">
<path d="M0 0 C0.84046875 0.32613281 1.6809375 0.65226562 2.546875 0.98828125 C14.95608453 6.42225039 26.2029423 18.26676729 31.5625 30.59375 C33.57432816 36.03483071 35.1735539 41.24967501 36 47 C36.72703125 46.95359375 37.4540625 46.9071875 38.203125 46.859375 C51.07702685 46.39723493 61.75845166 50.30474391 71.2265625 59.05859375 C76.40767665 64.19260686 76.40767665 64.19260686 78.3125 66.7890625 C80.0577684 68.3063603 80.0577684 68.3063603 82.9765625 67.85546875 C84.18054688 67.63503906 85.38453125 67.41460937 86.625 67.1875 C116.67403794 62.40031173 146.1934654 70.53445694 171.40234375 87.07421875 C175.35248395 90.00266855 178.92597527 93.28805119 182.4921875 96.66796875 C184.97623428 99.04192752 184.97623428 99.04192752 187.734375 101.15234375 C190.40070831 103.32678454 191.20622563 104.66614765 192 108 C191.85508698 111.55036906 191.41264098 113.43452903 189.3125 116.3125 C186.35135528 118.47333533 184.6788064 119 181 119 C176.55493049 117.10672965 173.78081839 114.87595989 170.5 111.375 C153.80276782 94.13189676 128.86365158 85.59226854 105.2578125 84.96484375 C83.02790797 84.87796826 61.8334488 91.70903344 44 105 C43.19304687 105.58136719 42.38609375 106.16273438 41.5546875 106.76171875 C34.95635386 111.73569197 29.95884954 117.41909687 25 124 C24.38253906 124.79148438 23.76507813 125.58296875 23.12890625 126.3984375 C15.40231212 136.75792451 10.84077194 148.55460056 7.23828125 160.85546875 C5.94015483 164.15197274 4.72034795 165.7757155 2 168 C-1.28861719 169.31544688 -3.66281456 168.93031714 -7 168.125 C-22.84599844 164.33971207 -37.56291926 166.28229425 -51.80859375 173.98046875 C-58.4896377 178.20825299 -63.73086439 183.29955161 -68.5 189.5625 C-70.49241693 191.94206904 -71.41649042 192.87483075 -74.4765625 193.53125 C-77.86121788 193.57118694 -80.95509546 193.23904229 -84.25390625 192.484375 C-102.90406661 189.19473078 -122.22933341 193.75260461 -138 204 C-153.69559798 215.60660826 -164.36963704 232.57762584 -167.70703125 251.8125 C-170.3710947 271.70417374 -165.7265907 290.53586369 -153.75 306.6875 C-152.84574861 307.80185686 -151.92846602 308.90573648 -151 310 C-150.39671875 310.80179687 -149.7934375 311.60359375 -149.171875 312.4296875 C-137.62912837 326.08998837 -118.91196572 333.27918467 -101.50596619 334.78407288 C-93.93665228 335.2502554 -86.35089678 335.2447584 -78.76953125 335.31640625 C-76.92436806 335.33701626 -75.07920916 335.35801367 -73.23405457 335.37937927 C-68.41241971 335.43418258 -63.59074526 335.48377328 -58.76904297 335.53222656 C-53.83492572 335.58274932 -48.90086492 335.63827361 -43.96679688 335.69335938 C-34.31124632 335.8004292 -24.65564642 335.90198456 -15 336 C-14.94557739 335.39703598 -14.89115479 334.79407196 -14.83508301 334.1728363 C-14.75608765 333.37386429 -14.67709229 332.57489227 -14.59570312 331.75170898 C-14.52065552 330.96311996 -14.44560791 330.17453094 -14.36828613 329.36204529 C-13.77872548 325.5808305 -12.25839998 322.43070868 -10.5 319.0625 C-10.14542725 318.3722876 -9.79085449 317.6820752 -9.42553711 316.97094727 C-1.77546666 302.66907785 11.01095028 292.78418038 26.12109375 287.21875 C33.60047244 285.10399844 42.431057 284.10776425 50 286 C50.061875 284.824375 50.12375 283.64875 50.1875 282.4375 C52.10897221 265.69700241 60.47919293 251.89512932 72 240 C72.79277344 239.07960938 72.79277344 239.07960938 73.6015625 238.140625 C84.0183297 226.49521347 101.94002497 218.76280211 117.38256836 217.86083984 C139.94727088 217.03468156 160.82529902 221.37722983 178 237 C178.68320312 237.61488281 179.36640625 238.22976563 180.0703125 238.86328125 C188.91719592 247.25604708 194.23391243 256.86167082 199 268 C199.55945313 267.96519531 200.11890625 267.93039062 200.6953125 267.89453125 C211.87345815 267.51713405 223.615139 269.64667485 233 276 C234.41152338 277.42209659 235.8070579 278.86021333 237.1875 280.3125 C241.16702109 284.06782271 243.76077817 284.44704682 249.1875 284.3125 C251.12882813 284.21388672 251.12882813 284.21388672 253.109375 284.11328125 C266.98869035 283.70916464 281.56560754 289.92982139 292 299 C293.0173873 299.98230498 294.02596117 300.97469597 295 302 C305.15674082 287.78056285 307.90150466 269.87224949 305.71582031 252.77734375 C302.58126778 234.79358392 292.9411234 217.75760885 278 207 C264.81166086 198.38187739 251.51370836 193.82354411 235.6875 193.8125 C234.31948242 193.79413086 234.31948242 193.79413086 232.92382812 193.77539062 C227.23464776 193.76315583 222.47103876 194.46716586 217 196 C214.42578125 196.37109375 214.42578125 196.37109375 212.3125 196.4375 C211.60738281 196.47746094 210.90226562 196.51742187 210.17578125 196.55859375 C207.58430805 195.89327837 205.87105938 194.86456372 204.05541992 192.88891602 C201.61633076 188.52360654 201.83991319 183.13600167 201.5 178.25 C200.17676456 163.56638669 197.26609896 150.94872569 190.8203125 137.61328125 C189.56676167 133.61982646 190.3427957 130.43038583 192.0625 126.6875 C194.47862053 124.58313696 196.73621617 124.22103657 199.8671875 123.78515625 C202.94160553 124.09485037 204.55851387 125.11500028 207 127 C209.48046953 131.10882482 211.18652783 135.56150182 213 140 C213.38414062 140.91523438 213.76828125 141.83046875 214.1640625 142.7734375 C218.20435349 153.0437955 220.03869639 164.0411388 221 175 C222.41925781 174.85691406 222.41925781 174.85691406 223.8671875 174.7109375 C248.51146865 172.52047501 272.3543559 177.85506394 291.9375 193.5 C293.64369404 194.9787015 295.3326482 196.47763532 297 198 C297.72832031 198.65871094 298.45664062 199.31742188 299.20703125 199.99609375 C313.28803162 213.37708262 323.94338076 234.29667154 325.17700195 253.7980957 C325.63809952 275.45131106 324.22405333 296.91505366 310.18359375 314.6171875 C308.27908148 317.1982836 307.99126983 317.70203538 308.08984375 321.06640625 C308.54037109 322.51853516 308.54037109 322.51853516 309 324 C309.24878906 324.95777344 309.49757813 325.91554688 309.75390625 326.90234375 C310.15416016 328.40474609 310.15416016 328.40474609 310.5625 329.9375 C314.37740077 346.45620824 311.78809068 362.73504989 303.11132812 377.29785156 C294.80147626 390.02550693 282.33179454 398.32185 268 403 C258.56116925 404.96561372 249.14443395 405.31898536 239.54663086 405.26074219 C237.40776273 405.24984854 235.2697051 405.26080317 233.13085938 405.2734375 C231.75260234 405.27211839 230.3743458 405.26956118 228.99609375 405.265625 C227.15809204 405.26224121 227.15809204 405.26224121 225.28295898 405.25878906 C221.32814258 404.94703883 218.42618152 404.06963614 215.25 401.6875 C213.57153184 399.42156799 213.20074743 397.81046396 213 395 C213.97726186 391.5795835 215.16050892 389.18422391 218 387 C222.04910708 385.76395156 226.04993983 385.86497452 230.24609375 385.859375 C231.90561244 385.8410253 233.56511798 385.82145305 235.22460938 385.80078125 C237.81785023 385.77202973 240.41025244 385.75000518 243.00366211 385.74951172 C256.99718759 385.73069057 268.92110968 384.39576688 280.0703125 374.94140625 C288.15043252 366.81221668 292.46035303 356.37670327 293.02734375 345.0078125 C292.92607847 333.86863211 288.94360623 325.85907211 282.8125 316.75 C275.89513271 309.98635198 266.87798008 304.35515593 257.01660156 303.84594727 C252.63358429 303.89662381 248.26429829 304.07434399 243.88671875 304.29296875 C235.69042961 304.51982152 235.69042961 304.51982152 231.96484375 301.71484375 C231.31644531 300.81894531 230.66804688 299.92304688 230 299 C222.67986726 291.71017837 215.89383362 287.80910501 205.375 287.6875 C201.68520751 287.79168238 198.13843911 288.08338181 194.5 288.6875 C191 289 191 289 188.1875 287.875 C184.10239689 284.37348305 182.56115973 279.99602884 180.875 275 C175.28560285 260.1956508 165.20268951 249.06053243 151 242 C135.15067055 235.7163012 119.38682748 234.80597802 103.5625 241.44140625 C88.74747504 248.32209134 78.30767413 258.91545545 72 274 C69.87539498 279.92420985 68.87100355 285.53397835 68.5 291.8125 C68.2145124 296.52584424 67.8642268 300.07494846 65 304 C61.99257743 305.91323266 60.17267559 306.16673714 56.6875 305.625 C42.09226731 303.88132176 30.18201276 304.66847216 17.99609375 313.37890625 C9.72761227 320.09401352 4.84726745 329.58812891 3 340 C2.20622125 352.30357061 5.78749143 363.02260695 13.4375 372.6875 C19.1996737 378.90225823 29.33659907 384.7359184 37.85395622 385.13307858 C39.02459177 385.13693349 40.19522732 385.1407884 41.40133667 385.14476013 C42.05374049 385.14828698 42.70614432 385.15181382 43.37831795 385.15544754 C45.56846261 385.16613782 47.75856378 385.16981607 49.94873047 385.17358398 C51.51739689 385.179889 53.08606152 385.18665474 54.65472412 385.19384766 C58.03504946 385.20852102 61.41536787 385.22024436 64.79571152 385.22979546 C70.1405436 385.24523963 75.48531633 385.26918853 80.83010864 385.29469299 C96.02944186 385.36591822 111.22880897 385.42568928 126.42822266 385.47680664 C134.82095406 385.5051076 143.21362632 385.5404869 151.6062957 385.58346039 C156.91952747 385.61023729 162.23269233 385.6281397 167.54597831 385.63949764 C170.85239877 385.64862396 174.15873794 385.66598592 177.46511078 385.68567657 C178.99815467 385.69314949 180.53121942 385.69723298 182.06428146 385.69767189 C184.15791418 385.69875527 186.25113398 385.71201027 188.34469604 385.72825623 C190.10178044 385.73460413 190.10178044 385.73460413 191.8943615 385.74108028 C195.73686864 386.06143336 198.61440959 387.01029256 201.75 389.25 C203.59806681 391.83729353 203.87362945 393.84073634 204 397 C202.45250778 400.24236465 200.80449997 403.35865638 197.26499844 404.61664295 C194.40108716 405.1013676 191.66599249 405.1293454 188.76002502 405.13371277 C187.47753372 405.13797775 186.19504242 405.14224274 184.87368774 405.14663696 C183.45428464 405.14628744 182.03488155 405.14582591 180.61547852 405.14526367 C179.1187583 405.14825639 177.62203886 405.15165918 176.12532043 405.15544128 C172.05869429 405.16427927 167.9920892 405.16661946 163.92545438 405.16725707 C161.38052162 405.1679683 158.8355942 405.17010412 156.29066277 405.17275429 C147.39925676 405.18201078 138.50786574 405.18608926 129.61645508 405.18530273 C121.35166117 405.18470357 113.08693287 405.19522284 104.82215554 405.2110464 C97.71194866 405.22417014 90.60176307 405.22948453 83.49154419 405.22884732 C79.25180662 405.22859353 75.01212723 405.23137836 70.77240181 405.24202538 C66.77591457 405.25178661 62.7795401 405.25173121 58.78304863 405.24450874 C57.32591459 405.24347242 55.86877324 405.2457683 54.41165161 405.2518692 C35.22852244 405.32690405 19.05064758 402.57366012 4 390 C3.28070313 389.40574219 2.56140625 388.81148438 1.8203125 388.19921875 C-6.51908496 380.6223732 -13.00117794 369.11844772 -15 358 C-15 356.68 -15 355.36 -15 354 C-16.61587257 354.00999275 -16.61587257 354.00999275 -18.26438904 354.02018738 C-28.48678119 354.08137675 -38.7091355 354.12615245 -48.93167019 354.15543652 C-54.18540095 354.17099853 -59.4389822 354.19206083 -64.69262695 354.22631836 C-69.77606204 354.25925322 -74.8593546 354.27692388 -79.94288826 354.28463173 C-81.86866558 354.29011469 -83.79443636 354.3008186 -85.7201519 354.31719017 C-114.92341789 354.55526924 -140.5576911 347.8383002 -162 327 C-180.24974424 308.20251446 -187.5687459 285.45502802 -187.41723633 259.74951172 C-186.84586815 234.72106196 -176.48563203 213.91011749 -158.79614258 196.30322266 C-145.63449503 183.80947961 -125.16677626 172.79092 -106.72363281 173.04516602 C-104.98098145 173.14849243 -104.98098145 173.14849243 -103.203125 173.25390625 C-101.22854262 173.32795309 -99.25395775 173.4019538 -97.27929688 173.47387695 C-95.93277795 173.53268186 -94.58686492 173.60773575 -93.2421875 173.69946289 C-84.64038089 174.29157417 -84.64038089 174.29157417 -77.00952148 170.86791992 C-74.37990685 168.27253496 -74.37990685 168.27253496 -72.18237305 165.54003906 C-62.36284589 154.11120357 -44.47653736 148.70860419 -30 147 C-27.50124589 146.91075878 -25.00034186 146.869834 -22.5 146.875 C-20.62828125 146.87113281 -20.62828125 146.87113281 -18.71875 146.8671875 C-15.0470793 146.9983186 -11.62003093 147.41221147 -8 148 C-7.67 146.02 -7.34 144.04 -7 142 C-7.70084717 141.98541748 -8.40169434 141.97083496 -9.1237793 141.95581055 C-12.31223009 141.88114513 -15.49965513 141.78454525 -18.6875 141.6875 C-20.34168945 141.65366211 -20.34168945 141.65366211 -22.02929688 141.61914062 C-23.09599609 141.58369141 -24.16269531 141.54824219 -25.26171875 141.51171875 C-26.24100342 141.48553467 -27.22028809 141.45935059 -28.22924805 141.43237305 C-32.10441595 140.82765701 -34.93854115 139.35094763 -37.375 136.25 C-38.31697802 132.85887913 -37.84752199 130.39008797 -37 127 C-35.4465332 124.79516602 -35.4465332 124.79516602 -33 123 C-30.19099309 122.71404193 -27.77171236 122.65263475 -24.98046875 122.77734375 C-23.38478945 122.7969656 -21.78908306 122.81447724 -20.19335938 122.83007812 C-17.69016881 122.87545689 -15.19084474 122.93736631 -12.68920898 123.03735352 C-2.92388333 123.73731702 -2.92388333 123.73731702 5.46386719 119.75463867 C7.2240438 116.91182151 8.60293357 114.03436982 10 111 C12.02334957 108.29841556 14.29281919 105.87455835 16.625 103.4375 C17.22908691 102.80183105 17.83317383 102.16616211 18.45556641 101.51123047 C29.51899615 90.11315722 43.59600804 79.57120009 59 75 C54.51858801 69.79577963 49.25589656 66.39752671 42.27124023 65.74511719 C39.40049797 65.7500843 36.55402119 65.84536636 33.6875 66 C23.7549524 66.52518428 23.7549524 66.52518428 20.39453125 64.1875 C17.90728369 60.2859352 17.78217231 56.70900644 17.375 52.1875 C16.19256224 41.98040816 12.02866356 31.52785908 4.2265625 24.52734375 C-7.24087878 16.6610814 -18.20450941 13.78384988 -32 15 C-42.00388186 17.06291228 -51.69133787 22.97426693 -57.5625 31.4140625 C-59.89358228 35.60747683 -61.75503868 40.00776687 -63.5534668 44.45288086 C-66.14228138 50.77662748 -66.14228138 50.77662748 -69 53 C-70.92602539 53.26123047 -70.92602539 53.26123047 -73.09765625 53.1171875 C-73.89478027 53.08125488 -74.6919043 53.04532227 -75.51318359 53.00830078 C-76.35445801 52.96431152 -77.19573242 52.92032227 -78.0625 52.875 C-85.7283452 52.67747869 -91.77379088 53.01386573 -98 58 C-99.91097179 59.91097179 -101.4016196 61.80222696 -103 64 C-105.30769969 65.15384985 -106.44718188 65.065583 -109 64.95703125 C-119.87798601 64.62739531 -130.06629751 64.36889001 -138.62109375 72.265625 C-144.41437234 79.55235501 -147.69760099 87.99993489 -146.7734375 97.2734375 C-145.35507355 105.42207743 -141.24548886 111.62412711 -134.82421875 116.75 C-128.12550401 121.34012573 -121.15734008 122.12282283 -113.24780273 122.12597656 C-112.60146881 122.1278447 -111.95513489 122.12971283 -111.28921509 122.13163757 C-109.89625379 122.13561779 -108.50328607 122.13771421 -107.11031914 122.13809967 C-104.14370878 122.14154139 -101.17731254 122.16292823 -98.21077824 122.18333054 C-92.69818601 122.22123987 -87.18583359 122.25260965 -81.6730957 122.25048828 C-77.82737697 122.24970088 -73.98245906 122.27306484 -70.13694954 122.3123703 C-68.67579817 122.322818 -67.21455427 122.32436328 -65.75338554 122.31671906 C-63.70897572 122.30708426 -61.66699333 122.32829198 -59.62280273 122.35644531 C-58.46175522 122.36009094 -57.3007077 122.36373657 -56.10447693 122.36749268 C-52.0752069 123.1884177 -50.57080853 124.8661344 -48 128 C-47.09261859 131.02648335 -47.53566867 132.7496807 -48 136 C-50.20740681 138.96858157 -51.48597373 139.82865791 -55 141 C-57.13959205 141.09950931 -59.2821788 141.13829258 -61.42407227 141.14526367 C-62.07169022 141.14862228 -62.71930817 141.1519809 -63.3865509 141.15544128 C-65.52985553 141.16494596 -67.67308185 141.16689477 -69.81640625 141.16796875 C-71.31273938 141.17118387 -72.80907219 141.17454813 -74.30540466 141.17805481 C-77.44685595 141.18404642 -80.58827973 141.1858949 -83.72973633 141.18530273 C-87.73183998 141.18520161 -91.73376422 141.19880161 -95.73582554 141.21607494 C-98.83044727 141.22726656 -101.92502679 141.22921969 -105.01966667 141.22869301 C-106.49347484 141.22986437 -107.96728441 141.23423812 -109.44107246 141.24202538 C-120.4934353 141.29491382 -130.30390256 140.80815062 -140.25 135.6875 C-141.95929688 134.82705078 -141.95929688 134.82705078 -143.703125 133.94921875 C-154.88681772 127.33705919 -160.89063302 117.10457888 -165 105 C-168.1148679 90.86329182 -164.81369106 77.57239081 -157.3125 65.4375 C-149.80482795 54.68275978 -139.58643971 49.06193259 -127 46 C-124.523196 45.8634212 -122.04287346 45.78097241 -119.5625 45.75 C-113.50655424 45.4175167 -110.46348214 44.6261503 -106.00390625 40.62890625 C-100.08289293 35.81591882 -93.06480583 33.83095586 -85.5625 33.8125 C-82.59984888 33.78411289 -82.59984888 33.78411289 -80 33 C-78.1047711 30.70649836 -77.19744679 28.52557747 -76.12109375 25.7578125 C-71.28663484 13.86538049 -59.36860377 5.05437925 -48 0 C-31.75422063 -6.0679343 -16.25391989 -6.65139459 0 0 Z " fill="#000000" transform="translate(187,56)"/>
</svg>
