<?xml version="1.0" standalone="no"?>
<!DOCTYPE svg PUBLIC "-//W3C//DTD SVG 20010904//EN"
 "http://www.w3.org/TR/2001/REC-SVG-20010904/DTD/svg10.dtd">
<svg version="1.0" xmlns="http://www.w3.org/2000/svg"
 width="512.000000pt" height="512.000000pt" viewBox="0 0 512.000000 512.000000"
 preserveAspectRatio="xMidYMid meet">

<g transform="translate(0.000000,512.000000) scale(0.100000,-0.100000)"
fill="#000000" stroke="none">
<path d="M990 4965 c-197 -40 -374 -132 -523 -274 -170 -162 -275 -358 -318
-591 -21 -111 -21 -2969 0 -3080 49 -269 196 -508 411 -672 84 -64 263 -151
365 -178 149 -38 282 -41 1735 -37 1508 4 1433 1 1600 57 211 70 423 231 543
413 56 85 123 230 147 322 38 146 41 290 37 1740 -4 1503 -1 1430 -57 1595
-55 164 -132 284 -270 420 -140 139 -276 218 -468 273 l-77 22 -1530 2 c-1229
1 -1543 -1 -1595 -12z m3125 -254 c296 -72 524 -300 596 -596 18 -77 19 -133
19 -1555 0 -1422 -1 -1478 -19 -1555 -71 -294 -298 -521 -597 -597 l-89 -23
-1460 0 c-1386 0 -1464 1 -1540 19 -310 71 -543 299 -616 601 -18 77 -19 133
-19 1555 0 1422 1 1478 19 1555 71 294 298 522 591 595 71 18 147 19 1555 19
1428 1 1483 0 1560 -18z"/>
<path d="M944 4151 c-18 -11 -39 -30 -48 -42 -18 -27 -21 -91 -5 -121 6 -11
305 -387 665 -835 360 -449 653 -821 651 -828 -3 -6 -209 -265 -458 -576 -249
-310 -463 -579 -476 -598 -36 -53 -32 -112 11 -159 31 -33 40 -37 84 -37 40 0
56 5 77 25 20 18 843 1036 920 1138 8 10 115 -117 469 -558 253 -315 473 -581
490 -591 29 -18 56 -19 424 -19 427 0 427 0 471 56 23 29 28 92 10 126 -6 11
-305 387 -665 835 -360 449 -653 821 -650 828 2 6 208 266 457 576 249 310
463 579 476 598 36 53 32 112 -11 159 -31 33 -40 37 -84 37 -40 0 -56 -5 -77
-25 -20 -18 -852 -1047 -920 -1138 -8 -10 -114 115 -469 558 -253 315 -473
581 -490 591 -29 18 -56 19 -426 19 -371 0 -397 -1 -426 -19z m1819 -1586
c598 -745 1087 -1357 1087 -1360 0 -3 -92 -5 -203 -5 l-204 0 -1086 1355
c-598 745 -1087 1357 -1087 1360 0 3 92 5 203 5 l204 0 1086 -1355z"/>
</g>
</svg>
